<svg width="314" height="116" viewBox="0 0 314 116" fill="none" xmlns="http://www.w3.org/2000/svg">
<rect x="1" y="0.900024" width="142" height="114.5" rx="4" fill="black" stroke="#4B4B4B"/>
<path opacity="0.8" d="M57.9294 59.3013V57.4409H56.0544V56.1567H57.9294V54.2964H59.1794V56.1567H61.0593V57.4409H59.1794V59.3013H57.9294ZM65.4148 60.3315H64.0427V55.1606C63.5414 55.6294 62.9506 55.9761 62.2703 56.2007V54.9556C62.6283 54.8384 63.0173 54.617 63.4373 54.2915C63.8572 53.9627 64.1453 53.5802 64.3015 53.144H65.4148V60.3315ZM67.49 58.4907L68.8572 58.3491C68.8962 58.6584 69.0118 58.9041 69.2039 59.0864C69.3959 59.2655 69.6173 59.355 69.8679 59.355C70.1544 59.355 70.3969 59.2394 70.5955 59.0083C70.794 58.7739 70.8933 58.4224 70.8933 57.9536C70.8933 57.5142 70.794 57.1854 70.5955 56.9673C70.4001 56.7459 70.1446 56.6353 69.8289 56.6353C69.435 56.6353 69.0818 56.8094 68.7693 57.1577L67.656 56.9966L68.3591 53.271H71.9871V54.5552H69.3992L69.1843 55.771C69.4903 55.618 69.8028 55.5415 70.1218 55.5415C70.7306 55.5415 71.2465 55.7629 71.6697 56.2056C72.0929 56.6483 72.3044 57.2228 72.3044 57.9292C72.3044 58.5184 72.1335 59.0441 71.7917 59.5063C71.3263 60.1379 70.6801 60.4536 69.8533 60.4536C69.1925 60.4536 68.6537 60.2762 68.2371 59.9214C67.8204 59.5666 67.5714 59.0897 67.49 58.4907ZM73.0466 54.9409C73.0466 54.2996 73.1866 53.8244 73.4666 53.5151C73.7498 53.2059 74.1322 53.0513 74.614 53.0513C75.1121 53.0513 75.5011 53.2059 75.781 53.5151C76.0642 53.8211 76.2058 54.2964 76.2058 54.9409C76.2058 55.5822 76.0642 56.0575 75.781 56.3667C75.5011 56.6759 75.1202 56.8306 74.6384 56.8306C74.1404 56.8306 73.7498 56.6776 73.4666 56.3716C73.1866 56.0623 73.0466 55.5854 73.0466 54.9409ZM74.116 54.9312C74.116 55.3966 74.1697 55.7091 74.2771 55.8687C74.3585 55.9858 74.4708 56.0444 74.614 56.0444C74.7605 56.0444 74.8744 55.9858 74.9558 55.8687C75.06 55.7091 75.1121 55.3966 75.1121 54.9312C75.1121 54.4657 75.06 54.1548 74.9558 53.9985C74.8744 53.8781 74.7605 53.8179 74.614 53.8179C74.4708 53.8179 74.3585 53.8765 74.2771 53.9937C74.1697 54.1532 74.116 54.4657 74.116 54.9312ZM75.6589 60.605H74.6433L78.4568 53.0513H79.4431L75.6589 60.605ZM77.8757 58.7251C77.8757 58.0838 78.0157 57.6086 78.2957 57.2993C78.5789 56.9901 78.9646 56.8354 79.4529 56.8354C79.9444 56.8354 80.3302 56.9901 80.6101 57.2993C80.8933 57.6086 81.0349 58.0838 81.0349 58.7251C81.0349 59.3696 80.8933 59.8465 80.6101 60.1558C80.3302 60.465 79.9493 60.6196 79.4675 60.6196C78.9695 60.6196 78.5789 60.465 78.2957 60.1558C78.0157 59.8465 77.8757 59.3696 77.8757 58.7251ZM78.9451 58.7202C78.9451 59.1857 78.9988 59.4966 79.1062 59.6528C79.1876 59.7733 79.2999 59.8335 79.4431 59.8335C79.5896 59.8335 79.7019 59.7749 79.78 59.6577C79.8875 59.4982 79.9412 59.1857 79.9412 58.7202C79.9412 58.2547 79.8891 57.9422 79.7849 57.7827C79.7035 57.6655 79.5896 57.6069 79.4431 57.6069C79.2966 57.6069 79.1843 57.6655 79.1062 57.7827C78.9988 57.9422 78.9451 58.2547 78.9451 58.7202Z" fill="white"/>
<path opacity="0.8" d="M89.3887 18.6805H88.0166V13.5096C87.5153 13.9784 86.9245 14.3251 86.2441 14.5497V13.3046C86.6022 13.1874 86.9912 12.966 87.4111 12.6405C87.8311 12.3117 88.1191 11.9292 88.2754 11.493H89.3887V18.6805ZM91.7373 18.6805V17.3085H93.1094V18.6805H91.7373ZM94.5107 18.6805V11.5223H96.6738L97.9727 16.4052L99.2568 11.5223H101.425V18.6805H100.082V13.0458L98.6611 18.6805H97.2695L95.8535 13.0458V18.6805H94.5107ZM102.533 16.0145C102.533 15.5588 102.646 15.1177 102.87 14.6913C103.095 14.2649 103.412 13.9393 103.822 13.7147C104.236 13.4901 104.696 13.3778 105.204 13.3778C105.989 13.3778 106.632 13.6333 107.133 14.1444C107.634 14.6522 107.885 15.2951 107.885 16.0731C107.885 16.8576 107.631 17.5087 107.123 18.0262C106.618 18.5406 105.982 18.7977 105.214 18.7977C104.739 18.7977 104.285 18.6903 103.852 18.4755C103.422 18.2606 103.095 17.9465 102.87 17.5331C102.646 17.1164 102.533 16.6102 102.533 16.0145ZM103.939 16.0878C103.939 16.6021 104.062 16.996 104.306 17.2694C104.55 17.5428 104.851 17.6796 105.209 17.6796C105.567 17.6796 105.867 17.5428 106.107 17.2694C106.352 16.996 106.474 16.5988 106.474 16.078C106.474 15.5702 106.352 15.1796 106.107 14.9061C105.867 14.6327 105.567 14.496 105.209 14.496C104.851 14.496 104.55 14.6327 104.306 14.9061C104.062 15.1796 103.939 15.5734 103.939 16.0878ZM113.681 18.6805H112.309V16.0341C112.309 15.4742 112.279 15.1128 112.221 14.9501C112.162 14.7841 112.066 14.6555 111.933 14.5643C111.802 14.4732 111.645 14.4276 111.459 14.4276C111.221 14.4276 111.008 14.4927 110.819 14.6229C110.631 14.7531 110.5 14.9257 110.429 15.1405C110.36 15.3553 110.326 15.7525 110.326 16.3319V18.6805H108.954V13.495H110.229V14.2567C110.681 13.6708 111.251 13.3778 111.938 13.3778C112.24 13.3778 112.517 13.4331 112.768 13.5438C113.018 13.6512 113.207 13.7896 113.334 13.9589C113.464 14.1281 113.554 14.3202 113.603 14.535C113.655 14.7499 113.681 15.0575 113.681 15.4579V18.6805ZM117.455 13.495V14.5887H116.518V16.6786C116.518 17.1018 116.526 17.3492 116.542 17.4208C116.562 17.4891 116.602 17.5461 116.664 17.5917C116.729 17.6372 116.807 17.66 116.898 17.66C117.025 17.66 117.209 17.6161 117.45 17.5282L117.567 18.5927C117.248 18.7294 116.887 18.7977 116.483 18.7977C116.236 18.7977 116.013 18.757 115.814 18.6757C115.616 18.591 115.469 18.4836 115.375 18.3534C115.284 18.2199 115.22 18.0409 115.185 17.8163C115.155 17.6568 115.141 17.3345 115.141 16.8495V14.5887H114.511V13.495H115.141V12.4647L116.518 11.6639V13.495H117.455ZM119.774 11.5223V14.1542C120.217 13.6366 120.746 13.3778 121.361 13.3778C121.677 13.3778 121.962 13.4364 122.216 13.5536C122.47 13.6708 122.66 13.8205 122.787 14.0028C122.917 14.1851 123.005 14.3869 123.051 14.6083C123.1 14.8296 123.124 15.1731 123.124 15.6385V18.6805H121.752V15.9413C121.752 15.3977 121.726 15.0526 121.674 14.9061C121.622 14.7596 121.529 14.6441 121.396 14.5594C121.265 14.4716 121.101 14.4276 120.902 14.4276C120.674 14.4276 120.471 14.483 120.292 14.5936C120.113 14.7043 119.981 14.8719 119.896 15.0966C119.815 15.3179 119.774 15.6467 119.774 16.0829V18.6805H118.402V11.5223H119.774Z" fill="white"/>
<path opacity="0.8" d="M12.7324 11.5223H15.5937C16.1601 11.5223 16.5816 11.5468 16.8583 11.5956C17.1383 11.6412 17.3873 11.7388 17.6054 11.8885C17.8268 12.0383 18.0107 12.2385 18.1572 12.4891C18.3036 12.7365 18.3769 13.0149 18.3769 13.3241C18.3769 13.6594 18.2857 13.967 18.1035 14.2469C17.9244 14.5269 17.6803 14.7369 17.371 14.8768C17.8072 15.0038 18.1425 15.2203 18.3769 15.5262C18.6113 15.8322 18.7285 16.1919 18.7285 16.6053C18.7285 16.9309 18.652 17.2483 18.499 17.5575C18.3492 17.8635 18.1425 18.1093 17.8788 18.2948C17.6184 18.4771 17.2962 18.5894 16.912 18.6317C16.6712 18.6578 16.0901 18.674 15.1689 18.6805H12.7324V11.5223ZM14.1777 12.7137V14.369H15.1249C15.6881 14.369 16.038 14.3609 16.1747 14.3446C16.4221 14.3153 16.6158 14.2307 16.7558 14.0907C16.899 13.9475 16.9706 13.7603 16.9706 13.5292C16.9706 13.3078 16.9088 13.1288 16.7851 12.9921C16.6647 12.8521 16.484 12.7675 16.2431 12.7382C16.0999 12.7219 15.6881 12.7137 15.0078 12.7137H14.1777ZM14.1777 15.5604V17.4745H15.5156C16.0364 17.4745 16.3668 17.4598 16.5068 17.4305C16.7216 17.3915 16.8958 17.2971 17.0292 17.1473C17.166 16.9943 17.2343 16.7909 17.2343 16.537C17.2343 16.3221 17.1822 16.1399 17.0781 15.9901C16.9739 15.8404 16.8225 15.7313 16.624 15.663C16.4286 15.5946 16.0022 15.5604 15.3447 15.5604H14.1777ZM19.9443 12.7919V11.5223H21.3163V12.7919H19.9443ZM19.9443 18.6805V13.495H21.3163V18.6805H19.9443ZM22.7275 18.6805V11.5223H24.0995V18.6805H22.7275ZM25.5107 18.6805V11.5223H26.8828V18.6805H25.5107Z" fill="white"/>
<path d="M77.7497 26.8537C72.6054 25.4327 67.1905 25.3005 61.983 26.4686C56.7755 27.6367 51.9359 30.0692 47.8915 33.5513C43.8471 37.0334 40.7224 41.4579 38.7935 46.434C36.8646 51.41 36.1908 56.7846 36.8316 62.0828L46.6684 60.8931C46.223 57.2102 46.6914 53.4742 48.0322 50.0152C49.373 46.5563 51.5451 43.4807 54.3564 41.0602C57.1677 38.6397 60.5319 36.9488 64.1517 36.1369C67.7715 35.3249 71.5356 35.4168 75.1115 36.4046L77.7497 26.8537Z" fill="#F1C400" stroke="black"/>
<path d="M36.8316 62.0217C37.8259 70.2429 41.9211 77.7745 48.2808 83.0785C54.6405 88.3824 62.785 91.0586 71.0512 90.5605C79.3173 90.0625 87.0816 86.4277 92.7584 80.3985C98.4353 74.3694 101.596 66.4005 101.596 58.1194H91.6879C91.6879 63.8758 89.4905 69.4151 85.5444 73.6061C81.5983 77.7971 76.2012 80.3237 70.4552 80.67C64.7092 81.0162 59.0478 79.1559 54.627 75.469C50.2063 71.7821 47.3596 66.5467 46.6685 60.832L36.8316 62.0217Z" fill="#6D62F7" stroke="black"/>
<rect x="152" y="0.900024" width="161" height="114.5" rx="4" fill="black" stroke="#4B4B4B"/>
<path opacity="0.8" d="M264.894 17.6503V15.7899H263.019V14.5057H264.894V12.6454H266.144V14.5057H268.023V15.7899H266.144V17.6503H264.894ZM272.379 18.6805H271.007V13.5096C270.506 13.9784 269.915 14.3251 269.234 14.5497V13.3046C269.592 13.1874 269.981 12.966 270.401 12.6405C270.821 12.3117 271.109 11.9292 271.266 11.493H272.379V18.6805ZM274.454 16.8397L275.821 16.6981C275.86 17.0074 275.976 17.2531 276.168 17.4354C276.36 17.6145 276.581 17.704 276.832 17.704C277.118 17.704 277.361 17.5884 277.56 17.3573C277.758 17.1229 277.857 16.7714 277.857 16.3026C277.857 15.8632 277.758 15.5344 277.56 15.3163C277.364 15.0949 277.109 14.9843 276.793 14.9843C276.399 14.9843 276.046 15.1584 275.733 15.5067L274.62 15.3456L275.323 11.62H278.951V12.9042H276.363L276.148 14.12C276.454 13.967 276.767 13.8905 277.086 13.8905C277.695 13.8905 278.211 14.1119 278.634 14.5546C279.057 14.9973 279.269 15.5718 279.269 16.2782C279.269 16.8674 279.098 17.3931 278.756 17.8553C278.29 18.4869 277.644 18.8026 276.817 18.8026C276.157 18.8026 275.618 18.6252 275.201 18.2704C274.785 17.9156 274.535 17.4387 274.454 16.8397ZM280.011 13.2899C280.011 12.6486 280.151 12.1734 280.431 11.8641C280.714 11.5549 281.096 11.4003 281.578 11.4003C282.076 11.4003 282.465 11.5549 282.745 11.8641C283.028 12.1701 283.17 12.6454 283.17 13.2899C283.17 13.9312 283.028 14.4065 282.745 14.7157C282.465 15.0249 282.084 15.1796 281.603 15.1796C281.104 15.1796 280.714 15.0266 280.431 14.7206C280.151 14.4113 280.011 13.9344 280.011 13.2899ZM281.08 13.2802C281.08 13.7456 281.134 14.0581 281.241 14.2177C281.323 14.3348 281.435 14.3934 281.578 14.3934C281.725 14.3934 281.839 14.3348 281.92 14.2177C282.024 14.0581 282.076 13.7456 282.076 13.2802C282.076 12.8147 282.024 12.5038 281.92 12.3475C281.839 12.2271 281.725 12.1669 281.578 12.1669C281.435 12.1669 281.323 12.2255 281.241 12.3427C281.134 12.5022 281.08 12.8147 281.08 13.2802ZM282.623 18.954H281.607L285.421 11.4003H286.407L282.623 18.954ZM284.84 17.0741C284.84 16.4328 284.98 15.9576 285.26 15.6483C285.543 15.3391 285.929 15.1844 286.417 15.1844C286.909 15.1844 287.294 15.3391 287.574 15.6483C287.857 15.9576 287.999 16.4328 287.999 17.0741C287.999 17.7186 287.857 18.1955 287.574 18.5048C287.294 18.814 286.913 18.9686 286.432 18.9686C285.934 18.9686 285.543 18.814 285.26 18.5048C284.98 18.1955 284.84 17.7186 284.84 17.0741ZM285.909 17.0692C285.909 17.5347 285.963 17.8456 286.07 18.0018C286.152 18.1223 286.264 18.1825 286.407 18.1825C286.554 18.1825 286.666 18.1239 286.744 18.0067C286.852 17.8472 286.905 17.5347 286.905 17.0692C286.905 16.6037 286.853 16.2912 286.749 16.1317C286.668 16.0145 286.554 15.9559 286.407 15.9559C286.261 15.9559 286.148 16.0145 286.07 16.1317C285.963 16.2912 285.909 16.6037 285.909 17.0692Z" fill="white"/>
<path opacity="0.8" d="M200.048 17.6503V15.7899H198.173V14.5057H200.048V12.6454H201.298V14.5057H203.178V15.7899H201.298V17.6503H200.048ZM204.042 16.8397L205.41 16.6981C205.449 17.0074 205.564 17.2531 205.756 17.4354C205.948 17.6145 206.17 17.704 206.42 17.704C206.707 17.704 206.949 17.5884 207.148 17.3573C207.346 17.1229 207.446 16.7714 207.446 16.3026C207.446 15.8632 207.346 15.5344 207.148 15.3163C206.953 15.0949 206.697 14.9843 206.381 14.9843C205.987 14.9843 205.634 15.1584 205.322 15.5067L204.208 15.3456L204.911 11.62H208.539V12.9042H205.952L205.737 14.12C206.043 13.967 206.355 13.8905 206.674 13.8905C207.283 13.8905 207.799 14.1119 208.222 14.5546C208.645 14.9973 208.857 15.5718 208.857 16.2782C208.857 16.8674 208.686 17.3931 208.344 17.8553C207.879 18.4869 207.232 18.8026 206.406 18.8026C205.745 18.8026 205.206 18.6252 204.789 18.2704C204.373 17.9156 204.124 17.4387 204.042 16.8397ZM209.599 13.2899C209.599 12.6486 209.739 12.1734 210.019 11.8641C210.302 11.5549 210.685 11.4003 211.166 11.4003C211.664 11.4003 212.053 11.5549 212.333 11.8641C212.617 12.1701 212.758 12.6454 212.758 13.2899C212.758 13.9312 212.617 14.4065 212.333 14.7157C212.053 15.0249 211.673 15.1796 211.191 15.1796C210.693 15.1796 210.302 15.0266 210.019 14.7206C209.739 14.4113 209.599 13.9344 209.599 13.2899ZM210.668 13.2802C210.668 13.7456 210.722 14.0581 210.829 14.2177C210.911 14.3348 211.023 14.3934 211.166 14.3934C211.313 14.3934 211.427 14.3348 211.508 14.2177C211.612 14.0581 211.664 13.7456 211.664 13.2802C211.664 12.8147 211.612 12.5038 211.508 12.3475C211.427 12.2271 211.313 12.1669 211.166 12.1669C211.023 12.1669 210.911 12.2255 210.829 12.3427C210.722 12.5022 210.668 12.8147 210.668 13.2802ZM212.211 18.954H211.196L215.009 11.4003H215.995L212.211 18.954ZM214.428 17.0741C214.428 16.4328 214.568 15.9576 214.848 15.6483C215.131 15.3391 215.517 15.1844 216.005 15.1844C216.497 15.1844 216.883 15.3391 217.162 15.6483C217.446 15.9576 217.587 16.4328 217.587 17.0741C217.587 17.7186 217.446 18.1955 217.162 18.5048C216.883 18.814 216.502 18.9686 216.02 18.9686C215.522 18.9686 215.131 18.814 214.848 18.5048C214.568 18.1955 214.428 17.7186 214.428 17.0741ZM215.497 17.0692C215.497 17.5347 215.551 17.8456 215.659 18.0018C215.74 18.1223 215.852 18.1825 215.995 18.1825C216.142 18.1825 216.254 18.1239 216.332 18.0067C216.44 17.8472 216.494 17.5347 216.494 17.0692C216.494 16.6037 216.441 16.2912 216.337 16.1317C216.256 16.0145 216.142 15.9559 215.995 15.9559C215.849 15.9559 215.737 16.0145 215.659 16.1317C215.551 16.2912 215.497 16.6037 215.497 17.0692Z" fill="white"/>
<rect x="169.627" y="62.6194" width="27" height="28" fill="#6D62F7"/>
<rect x="237" y="33.2046" width="27" height="57.4148" fill="#6D62F7"/>
<rect x="196.627" y="48.6194" width="27" height="42" fill="#F1C400"/>
<rect x="264" y="48.6194" width="27" height="42" fill="#F1C400"/>
</svg>
